<svg width="40" height="40" viewBox="0 0 40 40" fill="none" xmlns="http://www.w3.org/2000/svg">
<g clip-path="url(#clip0_228_35)">
<mask id="mask0_228_35" style="mask-type:luminance" maskUnits="userSpaceOnUse" x="0" y="0" width="40" height="40">
<path d="M40 40L40 0L-3.8147e-06 -3.49691e-06L-7.31161e-06 40L40 40Z" fill="white"/>
</mask>
<g mask="url(#mask0_228_35)">
<path d="M37.8787 17.8557L22.0821 2.81123C20.9105 1.69553 19.0111 1.69553 17.8396 2.81123C16.6679 3.92708 16.6679 5.73612 17.8396 6.85197L33.6361 21.8963C34.8077 23.0121 36.7072 23.0121 37.8787 21.8963C39.0503 20.7806 39.0503 18.9715 37.8787 17.8557Z" fill="black"/>
<path d="M37.9492 18.0469C39.0754 19.1195 39.0577 20.8635 37.9101 21.9153L22.0674 36.4334C20.8973 37.5056 19.0413 37.4887 17.8932 36.3951C16.7033 35.2618 16.7338 33.4153 17.9607 32.3184L33.9903 17.9873C35.1103 16.986 36.8629 17.0124 37.9492 18.0469Z" fill="black"/>
<path d="M35.0002 17.1428L3.00015 17.1428C1.34326 17.1428 0.000148106 18.4221 0.000147968 20C0.00014783 21.5779 1.34326 22.8572 3.00015 22.8572L35.0002 22.8572C36.657 22.8572 38.0002 21.5779 38.0002 20C38.0002 18.4221 36.657 17.1428 35.0002 17.1428Z" fill="black"/>
</g>
</g>
<defs>
<clipPath id="clip0_228_35">
<rect width="40" height="40" fill="white" transform="translate(40 40) rotate(-180)"/>
</clipPath>
</defs>
</svg>
