<svg width="21" height="21" viewBox="0 0 21 21" fill="none" xmlns="http://www.w3.org/2000/svg">
<path d="M20.7774 11.1825V10.2816V9.4836C20.7858 9.4164 20.79 9.3492 20.79 9.2799C20.7459 8.6037 20.1894 7.7658 19.0953 7.896C18.9441 7.8834 18.7803 7.8771 18.6018 7.8792C16.7538 7.8603 16.9071 6.1656 16.9071 6.1656C16.6572 2.856 13.8915 0.247803 10.5189 0.247803C10.3866 0.247803 10.2543 0.252003 10.1241 0.260403H7.0119C6.8817 0.252003 6.7494 0.247803 6.6171 0.247803C3.1962 0.247803 0.403199 2.9274 0.220499 6.3021H0.209999V14.3346C0.209999 14.3388 0.209999 14.343 0.209999 14.3472C0.209999 17.8857 3.0786 20.7522 6.615 20.7522C6.6192 20.7522 6.6234 20.7522 6.6276 20.7522H14.3976C17.9298 20.7459 20.79 17.8794 20.79 14.3472C20.79 14.2149 20.7858 14.0826 20.7774 13.9503V11.1825ZM6.6759 5.2794C6.7284 5.2794 6.7809 5.2836 6.8313 5.2878H10.3509C10.4013 5.2815 10.4538 5.2794 10.5063 5.2794C11.2308 5.2794 11.8209 5.8674 11.8209 6.594C11.8209 7.3185 11.2329 7.9086 10.5063 7.9086C10.5042 7.9086 10.5 7.9086 10.4979 7.9086V7.9191H6.6654V7.9086C5.9451 7.9044 5.3613 7.3185 5.3613 6.5961C5.3613 5.8674 5.9493 5.2794 6.6759 5.2794ZM14.3682 15.6387C14.3661 15.6387 14.3619 15.6387 14.3598 15.6387V15.6492H6.6654V15.6387C5.9451 15.6345 5.3613 15.0486 5.3613 14.3262C5.3613 13.6017 5.9493 13.0116 6.6759 13.0116C6.7284 13.0116 6.7809 13.0158 6.8313 13.02H14.2149C14.2653 13.0137 14.3178 13.0116 14.3703 13.0116C15.0948 13.0116 15.6849 13.5996 15.6849 14.3262C15.6828 15.0507 15.0948 15.6387 14.3682 15.6387Z" fill="black"/>
</svg>
