<svg width="38" height="31" viewBox="0 0 38 31" fill="none" xmlns="http://www.w3.org/2000/svg">
<g clip-path="url(#clip0_438_160)">
<path d="M17.8972 0.042717C15.5947 0.213646 13.3349 0.905125 11.3768 2.03946C10.3281 2.64548 9.08597 3.55838 8.96601 3.81866C8.87701 4.00512 8.88088 4.31979 8.97375 4.49848C9.08597 4.70826 10.7422 6.35537 10.9202 6.42918C11.1098 6.50688 11.3304 6.50299 11.4929 6.41753C11.5664 6.38257 11.7676 6.24272 11.9379 6.11452C13.656 4.80926 15.6566 4.01289 17.8004 3.7837C18.6015 3.69823 19.952 3.72542 20.7027 3.84197C25.6017 4.5956 29.4674 8.27831 30.4774 13.1497C30.5277 13.4061 30.5819 13.7752 30.5974 13.9655C30.6167 14.2763 30.609 14.3346 30.5355 14.4822C30.489 14.5754 30.3845 14.692 30.2917 14.7502L30.133 14.859L28.9102 14.8784C28.0821 14.8901 27.6642 14.9134 27.61 14.9445C27.4746 15.0222 27.2927 15.2436 27.2463 15.3796C27.1843 15.566 27.196 15.7292 27.2772 15.9079C27.3198 15.9933 28.4188 17.3996 29.7267 19.0351C32.2613 22.2128 32.2342 22.1817 32.5709 22.1817C32.7179 22.1817 32.9501 22.0923 33.0623 21.9952C33.2171 21.8593 37.7911 16.0943 37.8762 15.9273C38.0465 15.6049 37.9381 15.2086 37.6208 14.9911C37.4854 14.8979 37.4815 14.8979 36.1658 14.8784C35.2642 14.8668 34.823 14.8435 34.7689 14.8124C34.6566 14.7502 34.498 14.5677 34.4283 14.4317C34.3974 14.3657 34.3509 14.1131 34.3239 13.8684C34.1033 11.7512 33.4261 9.64184 32.3774 7.80826C30.3729 4.29648 27.0992 1.71314 23.2412 0.602116C21.5424 0.112642 19.6346 -0.0854778 17.8972 0.042717Z" fill="black"/>
<path d="M5.12724 9.18345C5.06532 9.21453 4.96858 9.27668 4.92215 9.3233C4.75575 9.48257 0.177951 15.2436 0.108297 15.3835C-0.0232713 15.636 0.0541218 16.0244 0.274692 16.2264C0.487523 16.4207 0.568786 16.4323 1.87673 16.4323C3.23111 16.4323 3.26206 16.4362 3.47103 16.6771C3.62194 16.848 3.65677 16.9723 3.73803 17.5783C4.25657 21.5679 6.37327 25.2506 9.58895 27.764C14.5498 31.641 21.4533 32.0644 26.8553 28.8246C27.8344 28.2341 28.8985 27.4338 29.0262 27.1891C29.123 26.9949 29.123 26.6918 29.0262 26.5015C28.9179 26.2917 27.2578 24.6485 27.0798 24.5747C26.9018 24.497 26.7006 24.497 26.5342 24.5669C26.4645 24.5941 26.2246 24.7573 25.9963 24.9282C23.8834 26.5287 21.283 27.3484 18.613 27.259C16.8716 27.2007 15.3315 26.8084 13.7991 26.0392C12.6073 25.441 11.6205 24.7184 10.6763 23.7511C9.30259 22.341 8.3584 20.7444 7.7973 18.8991C7.60382 18.2581 7.41807 17.3142 7.44129 17.085C7.46064 16.8402 7.61156 16.6188 7.82439 16.5139C7.98691 16.4362 8.05657 16.4323 9.0975 16.4323C10.0843 16.4323 10.212 16.4246 10.3513 16.3585C10.537 16.273 10.657 16.1487 10.7382 15.9584C10.8195 15.7564 10.8118 15.5816 10.7073 15.3796C10.6221 15.2086 6.05595 9.45926 5.87795 9.29611C5.69221 9.12906 5.36329 9.07856 5.12724 9.18345Z" fill="black"/>
<path d="M14.1628 10.7412C13.888 10.8306 13.6288 11.0559 13.4701 11.3434L13.3308 11.5959V15.2669V18.938L13.4237 19.14C13.532 19.3808 13.8223 19.6683 14.0777 19.7848L14.2595 19.8703H18.9999H23.7402L23.9221 19.7848C24.1775 19.6683 24.4677 19.3808 24.576 19.14L24.6689 18.938V15.2669V11.5959L24.5335 11.3472C24.3748 11.052 24.1117 10.8267 23.8292 10.7412C23.5428 10.6558 14.4337 10.6558 14.1628 10.7412Z" fill="black"/>
</g>
<defs>
<clipPath id="clip0_438_160">
<rect width="38" height="31" fill="white"/>
</clipPath>
</defs>
</svg>
