<svg width="51" height="51" viewBox="0 0 51 51" fill="none" xmlns="http://www.w3.org/2000/svg">
<path d="M15.021 7.37118C11.443 7.96883 8.45475 10.5587 7.13194 14.2163C5.66569 18.2724 6.51038 23.0298 9.47475 27.3727C10.0883 28.2652 10.0644 28.2413 12.463 30.7196C13.6504 31.9468 15.539 33.9071 16.6546 35.0626C17.7702 36.226 19.1887 37.6923 19.8023 38.3298C20.4158 38.9673 21.3323 39.9156 21.8343 40.4415C22.3363 40.9674 23.3085 41.9635 23.9858 42.6488C25.1732 43.8521 25.2369 43.9079 25.5398 43.9079C25.8904 43.9079 25.6673 44.1151 28.5998 41.079C29.1894 40.4654 30.1935 39.4215 30.831 38.7681C31.4685 38.1066 32.4168 37.1265 32.9427 36.5766C33.4687 36.0268 34.3691 35.0945 34.9429 34.5048C40.4174 28.839 40.8716 28.3609 41.3259 27.7393C42.8399 25.6595 43.9157 23.2529 44.3859 20.9101C44.601 19.8502 44.6727 18.0174 44.5532 16.9177C44.2424 14.2243 43.071 11.8018 41.2143 10.0327C37.6523 6.62212 32.7037 6.32727 28.7671 9.29165C27.8985 9.95305 26.7829 11.0766 26.0976 11.9931C25.8426 12.3437 25.6035 12.6624 25.5716 12.6943C25.5477 12.7341 25.3326 12.4951 25.0935 12.1763C23.0774 9.45102 20.631 7.81743 17.8977 7.37118C17.0212 7.22774 15.8896 7.22774 15.021 7.37118Z" fill="black"/>
</svg>
