<svg width="21" height="20" viewBox="0 0 21 20" fill="none" xmlns="http://www.w3.org/2000/svg">
<path d="M10.1771 0.0369854C9.99337 0.0813732 9.90675 0.120827 9.68625 0.266315C9.492 0.392076 0.719249 8.60849 0.406874 8.95618C0.194249 9.19291 0.0656241 9.41484 0.026249 9.61458C-0.105001 10.2804 0.317624 10.9067 1.00012 11.0596C1.12875 11.0867 1.33875 11.0966 1.89525 11.0966H2.625L2.63025 14.9237L2.63812 18.7532L2.70112 18.9111C2.82712 19.2292 3.15525 19.5374 3.49387 19.6558L3.66187 19.7149L5.76712 19.7223L7.875 19.7297L7.88025 16.5167L7.88812 13.3036L7.95113 13.1482C8.07975 12.8252 8.379 12.5391 8.7255 12.4109L8.91187 12.3419L10.4291 12.3345C12.0855 12.3271 12.1039 12.3271 12.4163 12.4701C12.6 12.5539 12.8809 12.8178 12.9728 12.9953C13.1329 13.2962 13.125 13.1334 13.125 16.5758V19.7273H15.1673C17.3906 19.7273 17.3539 19.7297 17.6663 19.5842C17.85 19.5004 18.1309 19.2366 18.2228 19.0615C18.3829 18.7582 18.375 18.985 18.375 14.8645V11.0966H19.1048C19.6613 11.0966 19.8713 11.0867 19.9999 11.0596C20.6168 10.9215 21.0368 10.3839 20.9921 9.78966C20.9554 9.29894 20.8819 9.21017 19.4985 7.90077L18.375 6.84043V4.58412C18.375 2.12808 18.3776 2.19712 18.2254 1.90121C18.1335 1.72367 17.85 1.45735 17.6663 1.37351C17.3801 1.24528 17.2751 1.23295 16.4062 1.23295C15.5374 1.23295 15.4298 1.24528 15.1463 1.37351C14.9468 1.46475 14.6738 1.72613 14.574 1.92587C14.4611 2.15274 14.4375 2.29329 14.4375 2.74209V3.14157L12.9491 1.74586C11.3846 0.283577 11.2245 0.150417 10.9095 0.0591793C10.7179 0.00492859 10.3635 -0.00740051 10.1771 0.0369854Z" fill="black"/>
</svg>
