<svg width="65" height="65" viewBox="0 0 65 65" fill="none" xmlns="http://www.w3.org/2000/svg">
<path d="M48.4249 27.9499C52.1949 27.9499 55.2499 24.8949 55.2499 21.1249C55.2499 17.3549 52.1949 14.2999 48.4249 14.2999C44.6549 14.2999 41.5999 17.3549 41.5999 21.1249C41.5999 24.8949 44.6549 27.9499 48.4249 27.9499Z" fill="black"/>
<path d="M60.3654 5.19995H4.6344C2.4114 5.19995 0.649902 7.00695 0.649902 9.22345V55.7764C0.649902 57.9929 2.4114 59.7999 4.6344 59.7999H60.3719C62.5884 59.7999 64.3564 57.9929 64.3564 55.7764V9.22345C64.3499 7.00695 62.5884 5.19995 60.3654 5.19995ZM45.7079 33.3125C45.2789 32.812 44.6289 32.4284 43.8879 32.4284C43.1599 32.4284 42.6529 32.7729 42.0679 33.2409L39.4094 35.49C38.8569 35.8865 38.4149 36.1594 37.7714 36.1594C37.1604 36.1594 36.6079 35.9319 36.2049 35.5744C36.0619 35.4444 35.8084 35.2039 35.5939 34.9894L27.9499 26.715C27.3844 26.0585 26.5264 25.649 25.5774 25.649C24.6219 25.649 23.7444 26.117 23.1919 26.7605L5.1999 48.451V11.414C5.3429 10.4455 6.0969 9.74995 7.0654 9.74995H57.9279C58.9094 9.74995 59.7024 10.478 59.7609 11.453L59.8064 48.4769L45.7079 33.3125Z" fill="black"/>
</svg>
