<svg width="19" height="22" viewBox="0 0 19 22" fill="none" xmlns="http://www.w3.org/2000/svg">
<path d="M19 17.4822C19 18.5764 18.6722 19.4411 18.0145 20.0762C17.3567 20.7113 16.4854 21.0267 15.3963 21.0267H3.60374C2.51458 21.0267 1.64325 20.7091 0.98553 20.0762C0.327805 19.4411 0 18.5764 0 17.4822C0 16.9994 0.0148041 16.5252 0.0465272 16.0661C0.0782502 15.6048 0.141696 15.107 0.234751 14.5749C0.32992 14.0407 0.448353 13.545 0.592164 13.0902C0.735975 12.6332 0.930543 12.189 1.17164 11.7556C1.41485 11.3222 1.69401 10.9532 2.00913 10.6464C2.32424 10.3417 2.70915 10.0971 3.16385 9.91472C3.61854 9.73234 4.11977 9.64008 4.66752 9.64008C4.74788 9.64008 4.93822 9.73878 5.2343 9.93403C5.53039 10.1293 5.86665 10.3503 6.23887 10.5906C6.6132 10.833 7.09751 11.0519 7.69602 11.2471C8.29452 11.4424 8.89515 11.5411 9.49788 11.5411C10.1006 11.5411 10.7012 11.4424 11.2998 11.2471C11.8983 11.0519 12.3847 10.8309 12.7569 10.5906C13.1312 10.3481 13.4654 10.1293 13.7615 9.93403C14.0575 9.73878 14.2479 9.64008 14.3282 9.64008C14.876 9.64008 15.3793 9.73234 15.8319 9.91472C16.2866 10.0971 16.6715 10.3417 16.9866 10.6464C17.3018 10.951 17.5809 11.3222 17.8241 11.7556C18.0673 12.189 18.2598 12.6332 18.4036 13.0902C18.5474 13.5472 18.6658 14.0407 18.761 14.5749C18.8562 15.1092 18.9175 15.6069 18.9492 16.0661C18.9831 16.5252 19 16.9973 19 17.4822ZM14.6814 5.25667C14.6814 6.70708 14.176 7.94722 13.163 8.97281C12.152 10.0005 10.9297 10.5133 9.5 10.5133C8.07035 10.5133 6.84795 10.0005 5.83704 8.97281C4.82402 7.94722 4.31857 6.70708 4.31857 5.25667C4.31857 3.80626 4.82402 2.56611 5.83704 1.54053C6.84795 0.512793 8.07035 0 9.5 0C10.9297 0 12.152 0.512793 13.163 1.54053C14.176 2.56611 14.6814 3.80626 14.6814 5.25667Z" fill="black"/>
</svg>
