<svg width="21" height="21" viewBox="0 0 21 21" fill="none" xmlns="http://www.w3.org/2000/svg">
<g clip-path="url(#clip0_4_86)">
<path d="M0.918337 2.25767C0.710857 2.32403 0.325087 2.72219 0.262927 2.93387C0.192367 3.18272 0.192367 15.4938 0.262927 15.7426C0.329287 15.9707 0.715057 16.3564 0.943117 16.4228C1.07164 16.4602 1.85977 16.4726 3.9835 16.4726H6.84979V17.3021V18.1316H6.02029H5.19079V18.4634V18.7952H10.5H15.8094V18.4634V18.1316H14.9799H14.1504V17.3021V16.4726H17.0163C19.14 16.4726 19.9282 16.4602 20.0569 16.4228C20.285 16.3564 20.6707 15.9707 20.7371 15.7426C20.8076 15.4938 20.8076 3.18272 20.7371 2.93387C20.6707 2.70581 20.285 2.32004 20.0569 2.25368C19.8204 2.18731 1.138 2.18732 0.918337 2.25767ZM20.0403 2.95046C20.1233 3.03341 20.1233 3.08738 20.1233 8.25989V13.4862H10.5H0.876757V8.25968C0.876757 3.08717 0.876757 3.0332 0.959707 2.95025C1.04266 2.8673 1.09663 2.8673 10.5 2.8673C19.9034 2.86751 19.9574 2.86751 20.0403 2.95046ZM20.1233 14.8965C20.1233 15.5893 20.1191 15.6473 20.0403 15.726C19.9574 15.809 19.9034 15.809 10.5 15.809C1.09663 15.809 1.04266 15.809 0.959707 15.726C0.880957 15.6473 0.876757 15.5891 0.876757 14.8965V14.15H10.5H20.1233V14.8965ZM13.4864 17.3023V18.1318H10.5H7.51339V17.3023V16.4728H10.5H13.4864V17.3023Z" fill="black"/>
<path d="M1.54036 6.51775V9.17236H5.52238H9.5044V6.51775V3.86314H5.52238H1.54036V6.51775ZM8.8408 6.51775V8.50876H5.52238H2.20417V6.51775V4.52674H5.52259H8.84101V6.51775H8.8408Z" fill="black"/>
<path d="M10.5 4.52665V4.85845H10.8484H11.1968L11.2216 5.01196C11.234 5.09911 11.3793 6.22324 11.5368 7.51306C11.6943 8.80309 11.8396 9.92722 11.852 10.0102L11.877 10.1679H12.3499C12.6111 10.1679 12.8228 10.1803 12.8228 10.1969C12.8228 10.2177 12.7441 10.284 12.6445 10.3462C12.2837 10.5908 12.101 11.0016 12.1924 11.3582C12.2837 11.7024 12.6155 12.0344 12.9597 12.1255C13.3165 12.2208 13.6815 12.0549 13.9635 11.6692L14.0878 11.4991H15.4774H16.8672L16.9917 11.6692C17.452 12.2996 18.1033 12.3122 18.5928 11.6982C18.933 11.275 18.8168 10.7275 18.3065 10.3542C18.2152 10.2836 18.1364 10.2172 18.1364 10.1964C18.1322 10.1799 18.3439 10.1675 18.6052 10.1675H19.0821L19.1068 9.98917C19.1192 9.89383 19.2022 9.05992 19.2935 8.13508C19.3849 7.21003 19.4678 6.39292 19.476 6.31837L19.4968 6.18565H15.9919H12.491V6.51745V6.84925H15.6227C18.5762 6.84925 18.7545 6.85345 18.7545 6.91981C18.7545 6.96139 18.6963 7.54603 18.6299 8.21803C18.5636 8.89003 18.5054 9.45409 18.5054 9.47068C18.5054 9.49147 17.1448 9.50386 15.4816 9.50386H12.4578L12.4328 9.34615C12.4204 9.2632 12.2753 8.13907 12.1176 6.84904C11.9559 5.55901 11.8148 4.43488 11.7982 4.34794L11.7734 4.19443H11.1388H10.5V4.52665ZM17.4644 10.1969C17.4644 10.2177 17.3857 10.288 17.2901 10.3546C17.1948 10.4249 17.0621 10.5576 16.9915 10.6532L16.867 10.8275H15.4774H14.0878L13.9635 10.6532C13.893 10.5579 13.7603 10.4251 13.6649 10.3546C13.5696 10.2882 13.4906 10.2177 13.4906 10.1969C13.4864 10.1803 14.3825 10.1679 15.4774 10.1679C16.5724 10.1679 17.4686 10.1803 17.4644 10.1969ZM13.4035 10.9144C13.4574 10.9684 13.4864 11.0514 13.4864 11.1633C13.4864 11.3832 13.3745 11.4951 13.1546 11.4951C12.9347 11.4951 12.8228 11.3832 12.8228 11.1633C12.8228 11.0514 12.8518 10.9684 12.9058 10.9144C12.9597 10.8605 13.0427 10.8315 13.1546 10.8315C13.2668 10.8315 13.3497 10.8605 13.4035 10.9144ZM18.0493 10.9144C18.1033 10.9684 18.1322 11.0514 18.1322 11.1633C18.1322 11.3832 18.0203 11.4951 17.8004 11.4951C17.5806 11.4951 17.4686 11.3832 17.4686 11.1633C17.4686 11.0514 17.4976 10.9684 17.5516 10.9144C17.6056 10.8605 17.6885 10.8315 17.8004 10.8315C17.9124 10.8315 17.9953 10.8605 18.0493 10.9144Z" fill="black"/>
<path d="M12.8228 8.17699V8.50879H15.4774H18.132V8.17699V7.84519H15.4776H12.8228V8.17699Z" fill="black"/>
<path d="M1.54036 10.4997V10.8315H5.52238H9.5044V10.4997V10.1679H5.52238H1.54036V10.4997Z" fill="black"/>
<path d="M1.54036 12.1589V12.4907H5.52238H9.5044V12.1589V11.8271H5.52238H1.54036V12.1589Z" fill="black"/>
</g>
<defs>
<clipPath id="clip0_4_86">
<rect width="21" height="21" fill="white"/>
</clipPath>
</defs>
</svg>
