<svg width="37" height="34" viewBox="0 0 37 34" fill="none" xmlns="http://www.w3.org/2000/svg">
<mask id="mask0_230_34" style="mask-type:luminance" maskUnits="userSpaceOnUse" x="0" y="0" width="35" height="34">
<path d="M34.8484 0H0.0249023V34H34.8484V0Z" fill="white"/>
</mask>
<g mask="url(#mask0_230_34)">
<path d="M27.3089 19.6217C28.0491 17.8803 28.4248 16.0306 28.4248 14.1239C28.4248 12.2171 28.0491 10.3673 27.3089 8.62642C26.9528 7.78949 26.5125 6.98207 25.9995 6.22723C25.4913 5.47927 24.908 4.77617 24.2653 4.13697C23.6233 3.49775 22.9159 2.91752 22.1639 2.41213C21.4049 1.90231 20.5936 1.46401 19.7521 1.11025C18.0013 0.373571 16.1417 0 14.2245 0C12.3075 0 10.4483 0.373571 8.69746 1.11025C7.85601 1.46401 7.04469 1.90234 6.28525 2.41213C5.53328 2.91748 4.82641 3.49771 4.18376 4.13697C3.54111 4.77617 2.95784 5.47927 2.45007 6.22723C1.93704 6.98207 1.49645 7.78951 1.14079 8.62642C0.400249 10.3674 0.0249023 12.2171 0.0249023 14.1239C0.0249023 16.0306 0.400249 17.8803 1.14079 19.6217C1.49645 20.4582 1.93704 21.2655 2.45007 22.0203C2.95788 22.7683 3.54111 23.4719 4.18376 24.1107C4.82641 24.7499 5.53328 25.3302 6.28525 25.8355C7.04469 26.3457 7.85601 26.7837 8.69746 27.1377C10.4483 27.8741 12.3075 28.2476 14.2245 28.2476C16.1416 28.2476 18.0013 27.8741 19.7521 27.1377C20.5936 26.7837 21.4049 26.3457 22.1639 25.8355C22.9159 25.3302 23.6233 24.7501 24.2653 24.1107C24.908 23.4719 25.4913 22.7683 25.9995 22.0203C26.5125 21.2655 26.9528 20.4582 27.3089 19.6217ZM14.2245 23.3478C9.10276 23.3478 4.95084 19.2182 4.95084 14.1239C4.95084 9.02953 9.1028 4.89987 14.2245 4.89987C19.3464 4.89987 23.4983 9.02953 23.4983 14.1239C23.4983 19.2182 19.3464 23.3478 14.2245 23.3478ZM34.1173 29.5679L32.167 27.628L28.0872 23.3244L28.0824 23.3223L28.0778 23.3251C27.1409 24.8274 25.9471 26.1267 24.5293 27.186L24.5269 27.19L24.5285 27.1949L28.442 31.3331L30.3919 33.2722C30.8637 33.7416 31.4936 34 32.1657 34C32.8376 34 33.4672 33.7416 33.9386 33.2722L34.1173 33.0948C34.589 32.6258 34.8484 31.9995 34.8484 31.3312C34.8484 30.6631 34.589 30.0369 34.1173 29.5679Z" fill="black"/>
</g>
</svg>
