<svg width="21" height="21" viewBox="0 0 21 21" fill="none" xmlns="http://www.w3.org/2000/svg">
<path d="M11.8029 1.64188L5.25 3.27949V8.95227C5.25 14.3446 5.24786 14.6229 5.21357 14.6122C5.04857 14.5608 4.68643 14.4881 4.45071 14.4581C4.09286 14.4131 3.49071 14.4281 3.14571 14.4902C1.11214 14.8605 -0.218572 16.4061 0.0342851 18.1058C0.182142 19.0991 0.878571 19.9917 1.90714 20.5076C3.12214 21.1177 4.65 21.1348 5.88214 20.5526C6.32143 20.3449 6.675 20.0902 7.02 19.7327C7.35643 19.3816 7.60071 18.9835 7.73571 18.5639C7.78071 18.429 7.80857 18.3755 7.84071 18.3627L7.88571 18.3477V13.437V8.52414L13.125 7.21619C16.0071 6.49692 18.3686 5.90824 18.375 5.90824C18.3814 5.90824 18.3857 7.27613 18.3857 8.94799C18.3857 11.474 18.3814 11.9877 18.3579 11.9877C18.3407 11.9877 18.2529 11.9685 18.1586 11.9449C17.7 11.8272 17.1707 11.778 16.725 11.8165C15.06 11.9535 13.7143 12.8825 13.2686 14.2055C13.1379 14.5908 13.0971 15.1431 13.1679 15.5541C13.4057 16.9156 14.6314 17.9923 16.2857 18.292C16.59 18.3477 17.3357 18.3605 17.6721 18.3156C19.1421 18.1229 20.3421 17.2645 20.8157 16.0679C20.8479 15.9887 20.9014 15.8196 20.9314 15.6933L20.9893 15.4663L20.9936 7.73209L21 -2.09808e-05L19.6779 0.00212097L18.3536 0.00426102L11.8029 1.64188Z" fill="black"/>
</svg>
